<svg xmlns="http://www.w3.org/2000/svg" viewBox="0 0 64 64" width="64" height="64">
  <defs>
    <linearGradient id="orgGrad" x1="0%" y1="0%" x2="100%" y2="100%">
      <stop offset="0%" stop-color="#4f46e5" />
      <stop offset="60%" stop-color="#4338ca" />
      <stop offset="100%" stop-color="#1e1b4b" />
    </linearGradient>
    <filter id="glow" x="-20%" y="-20%" width="140%" height="140%">
      <feDropShadow dx="0" dy="2" stdDeviation="2" flood-color="#000" flood-opacity="0.25"/>
    </filter>
  </defs>
  
  <!-- Base Squircle -->
  <rect width="64" height="64" rx="16" fill="url(#orgGrad)" />
  
  <!-- Subtle Border Highlight -->
  <rect x="1" y="1" width="62" height="62" rx="15" fill="none" stroke="#818cf8" stroke-width="1.5" stroke-opacity="0.5" />
  
  <!-- Building Body -->
  <path d="M16 50 V22 L36 14 V50 Z" fill="#ffffff" filter="url(#glow)" />
  
  <!-- Building Windows -->
  <rect x="21" y="24" width="4" height="4" rx="1" fill="#4338ca" />
  <rect x="29" y="24" width="4" height="4" rx="1" fill="#4338ca" />
  
  <rect x="21" y="32" width="4" height="4" rx="1" fill="#4338ca" />
  <rect x="29" y="32" width="4" height="4" rx="1" fill="#4338ca" />
  
  <rect x="21" y="40" width="4" height="4" rx="1" fill="#4338ca" />
  <rect x="29" y="40" width="4" height="4" rx="1" fill="#4338ca" />
  
  <!-- Side Annex Wing -->
  <path d="M36 28 H48 V50 H36 Z" fill="#e0e7ff" />
  <rect x="40" y="34" width="4" height="4" rx="1" fill="#4f46e5" />
  <rect x="40" y="42" width="4" height="4" rx="1" fill="#4f46e5" />
  
  <!-- Phonebook / Call Badge Indicator -->
  <circle cx="48" cy="18" r="9" fill="#10b981" stroke="#ffffff" stroke-width="2" />
  <path d="M45.5 15.5 C45 15.5 44.5 16 44.5 16.5 C44.5 19 46.5 21 49 21 C49.5 21 50 20.5 50 20 V19 C50 18.7 49.8 18.5 49.5 18.4 L48.2 18.1 C48 18 47.7 18.1 47.5 18.3 L47 18.8 C46.2 18.4 45.6 17.8 45.2 17 L45.7 16.5 C45.9 16.3 46 16 45.9 15.8 L45.6 14.5 C45.5 14.2 45.3 14 45 14 Z" fill="#ffffff" transform="scale(0.9) translate(3, 1.5)" />
</svg>
